<svg width="183" height="34" viewBox="0 0 183 34" fill="none" xmlns="http://www.w3.org/2000/svg">
<path d="M32.2027 0H28.3975V6.02031H28.6268C31.6767 6.02031 34.2988 7.06203 36.4903 9.14546C37.0994 9.72464 37.621 10.3374 38.0604 10.9805C39.2073 12.654 39.7772 14.5454 39.7772 16.6548C39.7772 19.3738 38.8001 21.75 36.8462 23.7923L39.5988 27.5941H34.8087L33.701 26.0677C32.1025 26.861 30.4135 27.2558 28.6258 27.2558H18.4765C18.3299 27.2558 18.1837 27.252 18.041 27.2482C18.0019 27.2482 17.9657 27.2444 17.9422 27.2444C15.0986 27.1316 12.6505 26.1013 10.5969 24.1459C8.41733 22.0738 7.32561 19.5766 7.32561 16.6548C7.32561 13.7331 8.41733 11.2321 10.5969 9.14546C12.7762 7.06203 15.4032 6.02031 18.4765 6.02031H26.8186V0H14.9007C6.6731 0 0 6.34411 0 14.1697V19.1451C0 26.9669 6.6731 33.3109 14.9007 33.3109H32.2017C40.4333 33.3109 47.1025 26.9669 47.1025 19.1451V14.1697C47.1025 6.34411 40.4333 0 32.2017 0H32.2027Z" fill="url(#paint0_linear_78_88)"/>
<path d="M37.7818 23.8911L39.6013 27.5954L36.8486 23.7935C38.803 21.7513 39.7802 19.3751 39.7802 16.6561C39.7802 14.5467 39.2102 12.6553 38.0629 10.9818C38.0786 11.0008 38.0903 11.023 38.1064 11.042C43.3913 18.3188 37.7818 23.8918 37.7818 23.8918V23.8911Z" fill="url(#paint1_linear_78_88)"/>
<path d="M182.999 6.57729H167.606C166.22 6.57729 165.036 7.06638 164.056 8.04464C163.076 9.02286 162.586 10.1854 162.586 11.5331V12.7513C162.586 14.1172 163.076 15.2889 164.056 16.2671C165.036 17.2272 166.22 17.7067 167.606 17.7067H182.999V20.78H167.606C165.388 20.78 163.483 19.9955 161.893 18.4268C160.303 16.8395 159.507 14.9477 159.507 12.7513V11.5331C159.507 9.33664 160.303 7.44478 161.893 5.85747C163.483 4.28859 165.388 3.50415 167.606 3.50415H182.999V6.57729Z" fill="#084FA3"/>
<path d="M153.98 3.47278H157.059V20.7486H154.008L153.98 3.47278Z" fill="#084FA3"/>
<path d="M137.944 3.448H151.535V6.49342H146.265V20.7517H143.186L143.214 6.49342H137.944V3.448Z" fill="#084FA3"/>
<path d="M132.392 3.47278H135.471L135.499 20.7765H132.42L124.571 9.00992V20.7765H121.492L121.52 3.47278H124.571L132.42 15.2115L132.392 3.47278Z" fill="#084FA3"/>
<path d="M104.596 20.7517H101.295L108.063 3.448H111.447L119.046 20.7517H115.69L114.969 19.1459H105.206L104.596 20.7517ZM113.638 16.0725L109.81 7.40701L106.426 16.1004L113.638 16.0725Z" fill="#084FA3"/>
<path d="M84.5083 3.50415H87.587C87.587 3.72564 87.587 7.131 87.587 13.7202C87.587 14.8274 87.9845 15.7875 88.7796 16.5995C89.5932 17.3934 90.5547 17.7898 91.6641 17.7898C92.792 17.7898 93.7535 17.3934 94.5486 16.5995C95.3622 15.7875 95.769 14.8274 95.769 13.7202C95.769 13.554 95.7782 10.1488 95.7967 3.50415H98.8476C98.8476 6.67877 98.8476 10.0842 98.8476 13.7202C98.8476 15.6766 98.145 17.3562 96.7397 18.7592C95.3344 20.1617 93.6426 20.8631 91.6641 20.8631C89.7041 20.8631 88.0215 20.1617 86.6162 18.7592C85.2109 17.3562 84.5083 15.6766 84.5083 13.7202C84.5083 10.5085 84.5083 7.10333 84.5083 3.50415Z" fill="#084FA3"/>
<path d="M73.4099 3.39795C75.7766 3.39795 77.8106 4.24697 79.5117 5.945C81.2128 7.64309 82.0634 9.68282 82.0634 12.0635C82.0634 14.2784 81.3053 16.2166 79.789 17.8777L81.9247 20.9784H78.2081L77.3483 19.7324C76.1094 20.3786 74.7966 20.7013 73.4099 20.7013H65.5329C63.1476 20.7013 61.1045 19.8619 59.4033 18.1823C57.7207 16.484 56.8794 14.4446 56.8794 12.0635C56.8794 9.68282 57.7207 7.64309 59.4033 5.945C61.1045 4.24697 63.1476 3.39795 65.5329 3.39795H73.4099ZM76.2389 12.6452L77.9862 15.2199C78.6519 14.2598 78.9847 13.2078 78.9847 12.0635C78.9847 10.5314 78.43 9.22116 77.3206 8.13222C76.2296 7.04323 74.926 6.49876 73.4099 6.49876H65.5329C63.9982 6.49876 62.6854 7.04323 61.5945 8.13222C60.5035 9.22116 59.9581 10.5314 59.9581 12.0635C59.9581 13.5955 60.5035 14.9061 61.5945 15.9947C62.6854 17.0839 63.9982 17.6284 65.5329 17.6284H73.4099C74.168 17.6284 74.8983 17.4715 75.601 17.1577L73.6872 14.3894L76.2389 12.6452Z" fill="#084FA3"/>
<path d="M179.917 26.6403V29.0463H181.472C181.721 29.0463 181.906 28.9491 182.06 28.7364C182.237 28.4979 182.298 28.185 182.298 27.858C182.298 27.5246 182.237 27.1946 182.06 26.9497C181.906 26.7405 181.719 26.6403 181.472 26.6403H179.917ZM181.476 29.9131H179.216V25.7731H181.476C182.122 25.7731 182.578 26.1832 182.815 26.7727C182.953 27.1091 183 27.4806 183 27.8311C183 28.1821 182.953 28.5595 182.815 28.9016C182.581 29.4883 182.128 29.9131 181.476 29.9131Z" fill="#414141"/>
<path d="M177.788 29.9131H174.193V25.7731H177.788V26.6403H174.894V27.4097H177.101V28.2764H174.894V29.0463H177.788V29.9131Z" fill="#414141"/>
<path d="M171.433 29.9131H170.701V26.6403H169.274V25.7731H172.869V26.6403H171.433V29.9131Z" fill="#414141"/>
<path d="M167.947 29.9131H167.246V25.7731H167.947V29.9131Z" fill="#414141"/>
<path d="M162.105 29.9101H161.404V25.7731H162.115L163.559 28.8664L165.001 25.7731H165.712V29.9101H165.011V27.4835L163.878 29.9131H163.234L162.105 27.4894V29.9101Z" fill="#414141"/>
<path d="M159.873 29.9131H159.172V25.7731H159.873V29.9131Z" fill="#414141"/>
<path d="M157.745 29.9131H154.343V25.7731H155.049V29.0463H157.745V29.9131Z" fill="#414141"/>
<path d="M150.347 29.9131H146.753V25.7731H150.347V26.6403H147.454V27.4097H149.661V28.2764H147.454V29.0463H150.347V29.9131Z" fill="#414141"/>
<path d="M143.993 29.9131H143.261V26.6403H141.834V25.7731H145.429V26.6403H143.993V29.9131Z" fill="#414141"/>
<path d="M139.142 26.6403L138.414 28.2764H139.907L139.184 26.6403H139.142ZM137.686 29.9131H136.889L138.731 25.7731H139.593L141.435 29.9131H140.638L140.294 29.1436H138.032L137.686 29.9131Z" fill="#414141"/>
<path d="M134.746 29.9131H133.884L132.042 25.7731H132.839L134.295 29.0463H134.337L135.79 25.7731H136.588L134.746 29.9131Z" fill="#414141"/>
<path d="M130.714 29.9131H130.013V25.7731H130.714V29.9131Z" fill="#414141"/>
<path d="M125.458 26.6403V28.0584H127.367C127.508 28.0584 127.611 28.0051 127.7 27.8814C127.801 27.7426 127.84 27.5539 127.84 27.3476C127.84 27.1443 127.801 26.9526 127.7 26.8138C127.613 26.696 127.508 26.6403 127.367 26.6403H125.458ZM125.458 29.9131H124.757V25.7731H127.371C127.874 25.7731 128.222 26.0918 128.403 26.5454C128.506 26.805 128.541 27.0939 128.541 27.3594C128.541 27.7338 128.471 28.1469 128.23 28.4768C128.144 28.5951 128.041 28.6983 127.918 28.775L128.689 29.9131H127.77L127.104 28.9251H125.458V29.9131Z" fill="#414141"/>
<path d="M120.348 26.6403V28.0584H122.257C122.398 28.0584 122.501 28.0051 122.59 27.8814C122.69 27.7426 122.729 27.5539 122.729 27.3476C122.729 27.1443 122.69 26.9526 122.59 26.8138C122.503 26.696 122.398 26.6403 122.257 26.6403H120.348ZM120.348 29.9131H119.647V25.7731H122.261C122.765 25.7731 123.112 26.0918 123.293 26.5454C123.398 26.805 123.431 27.0939 123.431 27.3594C123.431 27.7367 123.361 28.1469 123.12 28.4739C122.904 28.7692 122.618 28.9251 122.261 28.9251H120.348V29.9131Z" fill="#414141"/>
<path d="M114.715 29.9131H111.982V29.0463H114.71C114.853 29.0463 114.95 28.9075 114.95 28.6626C114.95 28.4182 114.855 28.2764 114.71 28.2764H112.801C112.517 28.2764 112.287 28.1498 112.114 27.9166C111.921 27.6546 111.865 27.3242 111.865 27.0323C111.865 26.7375 111.921 26.4012 112.114 26.1387C112.287 25.9002 112.517 25.7731 112.801 25.7731H115.536V26.6403H112.807C112.665 26.6403 112.566 26.7815 112.566 27.0206C112.566 27.2679 112.663 27.4097 112.807 27.4097H114.715C114.997 27.4097 115.234 27.5334 115.405 27.7695C115.598 28.032 115.651 28.362 115.651 28.6538C115.651 28.9461 115.596 29.282 115.407 29.5474C115.236 29.7864 114.999 29.9131 114.715 29.9131Z" fill="#414141"/>
<path d="M110.538 29.9131H109.837V25.7731H110.538V29.9131Z" fill="#414141"/>
<path d="M107.574 29.9131H104.841V29.0463H107.568C107.712 29.0463 107.809 28.9075 107.809 28.6626C107.809 28.4182 107.714 28.2764 107.568 28.2764H105.66C105.376 28.2764 105.145 28.1498 104.973 27.9166C104.779 27.6546 104.724 27.3242 104.724 27.0323C104.724 26.7375 104.779 26.4012 104.973 26.1387C105.145 25.9002 105.376 25.7731 105.66 25.7731H108.395V26.6403H105.666C105.524 26.6403 105.425 26.7815 105.425 27.0206C105.425 27.2679 105.522 27.4097 105.666 27.4097H107.574C107.856 27.4097 108.093 27.5334 108.263 27.7695C108.456 28.032 108.51 28.362 108.51 28.6538C108.51 28.9461 108.454 29.282 108.265 29.5474C108.095 29.7864 107.858 29.9131 107.574 29.9131Z" fill="#414141"/>
<path d="M102.037 29.9131H101.336V28.4979L99.6558 25.7731H100.54L101.684 27.6307L102.825 25.7731H103.711L102.037 28.4861V29.9131Z" fill="#414141"/>
<path d="M99.4594 29.9131H96.0579V25.7731H96.7633V29.0463H99.4594V29.9131Z" fill="#414141"/>
<path d="M92.5431 26.6403L91.815 28.2764H93.3081L92.5842 26.6403H92.5431ZM91.087 29.9131H90.2891L92.1317 25.7731H92.9934L94.8361 29.9131H94.0382L93.6947 29.1436H91.4325L91.087 29.9131Z" fill="#414141"/>
<path d="M85.9828 29.9131H85.2815V25.7731H85.8944L88.3642 28.6479V25.7731H89.0655V29.9131H88.4547L85.9828 27.0763V29.9131Z" fill="#414141"/>
<path d="M81.7662 26.6403L81.0381 28.2764H82.5312L81.8073 26.6403H81.7662ZM80.3101 29.9131H79.5122L81.3548 25.7731H82.2165L84.0592 29.9131H83.2613L82.9178 29.1436H80.6556L80.3101 29.9131Z" fill="#414141"/>
<path d="M72.4288 29.9131H71.7275V25.7731H72.4288V27.4566H74.8123V25.7731H75.5136V29.9131H74.8123V28.3209H72.4288V29.9131Z" fill="#414141"/>
<path d="M70.298 29.0463V29.9131H68.042C67.3922 29.9131 66.9376 29.5122 66.697 28.9163C66.5592 28.5775 66.512 28.2055 66.512 27.8521C66.512 27.4952 66.5592 27.1267 66.697 26.7845C66.9335 26.192 67.3881 25.7731 68.042 25.7731H70.298V26.6403H68.042C67.7047 26.6403 67.4641 26.8466 67.3243 27.1946C67.2441 27.395 67.2133 27.6189 67.2133 27.8492C67.2133 28.2706 67.3222 28.6924 67.6163 28.9104C67.7397 29.0048 67.8836 29.0463 68.042 29.0463H70.298Z" fill="#414141"/>
<path d="M65.3932 29.9131H61.7983V25.7731H65.3932V26.6403H62.4996V27.4097H64.7063V28.2764H62.4996V29.0463H65.3932V29.9131Z" fill="#414141"/>
<path d="M59.0388 29.9131H58.3066V26.6403H56.8794V25.7731H60.4742V26.6403H59.0388V29.9131Z" fill="#414141"/>
<defs>
<linearGradient id="paint0_linear_78_88" x1="3.96855" y1="4.43279" x2="41.7756" y2="32.8385" gradientUnits="userSpaceOnUse">
<stop stop-color="#59C6D4"/>
<stop offset="1" stop-color="#33459D"/>
</linearGradient>
<linearGradient id="paint1_linear_78_88" x1="38.6114" y1="10.9818" x2="38.6114" y2="27.5954" gradientUnits="userSpaceOnUse">
<stop stop-color="#364DA1"/>
<stop offset="0.667186" stop-color="#57BFD1"/>
</linearGradient>
</defs>
</svg>
