<svg width="128" height="28" viewBox="0 0 128 28" fill="none" xmlns="http://www.w3.org/2000/svg">
<path d="M27.0684 0H23.87V5.06046H24.0627C26.6263 5.06046 28.8304 5.93609 30.6725 7.68736C31.1844 8.17419 31.6229 8.68922 31.9923 9.22984C32.9563 10.6365 33.4354 12.2264 33.4354 13.9995C33.4354 16.2849 32.614 18.2823 30.9716 19.999L33.2854 23.1947H29.259L28.3279 21.9116C26.9842 22.5784 25.5645 22.9103 24.0619 22.9103H15.5307C15.4075 22.9103 15.2846 22.9071 15.1646 22.9039C15.1317 22.9039 15.1013 22.9007 15.0816 22.9007C12.6914 22.8059 10.6336 21.9398 8.9074 20.2962C7.07532 18.5545 6.15765 16.4554 6.15765 13.9995C6.15765 11.5435 7.07532 9.44129 8.9074 7.68736C10.7392 5.93609 12.9474 5.06046 15.5307 5.06046H22.5428V0H12.525C5.60918 0 0 5.33264 0 11.9105V16.0927C0 22.6674 5.60918 28 12.525 28H27.0676C33.9868 28 39.5927 22.6674 39.5927 16.0927V11.9105C39.5927 5.33264 33.9868 0 27.0676 0H27.0684Z" fill="url(#paint0_linear_33_3712)"/>
<path d="M31.758 20.0821L33.2874 23.1958L30.9736 20C32.6164 18.2834 33.4378 16.2861 33.4378 14.0006C33.4378 12.2275 32.9587 10.6376 31.9943 9.23096C32.0075 9.24694 32.0173 9.26556 32.0309 9.28154C36.4731 15.3982 31.758 20.0826 31.758 20.0826V20.0821Z" fill="url(#paint1_linear_33_3712)"/>
<path d="M127.593 7.79822H117.829C116.949 7.79822 116.198 8.10845 115.577 8.72898C114.955 9.34948 114.644 10.0869 114.644 10.9418V11.7145C114.644 12.5809 114.955 13.3241 115.577 13.9446C116.198 14.5536 116.949 14.8578 117.829 14.8578H127.593V16.8072H117.829C116.421 16.8072 115.213 16.3096 114.205 15.3145C113.196 14.3077 112.691 13.1077 112.691 11.7145V10.9418C112.691 9.54851 113.196 8.34848 114.205 7.34162C115.213 6.34646 116.421 5.84888 117.829 5.84888H127.593V7.79822Z" fill="#084FA3"/>
<path d="M109.186 5.82898H111.139V16.7873H109.203L109.186 5.82898Z" fill="#084FA3"/>
<path d="M99.0134 5.81323H107.634V7.74499H104.292V16.7892H102.339L102.356 7.74499H99.0134V5.81323Z" fill="#084FA3"/>
<path d="M95.4919 5.82898H97.4448L97.4624 16.805H95.5096L90.5306 9.34127V16.805H88.5778L88.5954 5.82898H90.5306L95.5096 13.275L95.4919 5.82898Z" fill="#084FA3"/>
<path d="M77.8602 16.7892H75.7666L80.0595 5.81323H82.2058L87.0263 16.7892H84.8973L84.4399 15.7706H78.2472L77.8602 16.7892ZM83.5956 13.8212L81.1677 8.32449L79.0213 13.8388L83.5956 13.8212Z" fill="#084FA3"/>
<path d="M65.1184 5.84888H67.0713C67.0713 5.98937 67.0713 8.14944 67.0713 12.3291C67.0713 13.0314 67.3234 13.6404 67.8277 14.1554C68.3438 14.659 68.9537 14.9105 69.6574 14.9105C70.3729 14.9105 70.9828 14.659 71.4871 14.1554C72.0032 13.6404 72.2612 13.0314 72.2612 12.3291C72.2612 12.2237 72.2671 10.0636 72.2788 5.84888H74.2141C74.2141 7.86259 74.2141 10.0227 74.2141 12.3291C74.2141 13.57 73.7684 14.6354 72.877 15.5254C71.9856 16.415 70.9124 16.8599 69.6574 16.8599C68.4142 16.8599 67.3469 16.415 66.4555 15.5254C65.5641 14.6354 65.1184 13.57 65.1184 12.3291C65.1184 10.2919 65.1184 8.13189 65.1184 5.84888Z" fill="#084FA3"/>
<path d="M58.0783 5.78149C59.5796 5.78149 60.8697 6.32004 61.9488 7.39713C63.0278 8.47425 63.5673 9.76808 63.5673 11.2782C63.5673 12.6831 63.0865 13.9126 62.1247 14.9662L63.4794 16.9331H61.1219L60.5765 16.1427C59.7907 16.5526 58.958 16.7572 58.0783 16.7572H53.0818C51.5688 16.7572 50.2728 16.2248 49.1937 15.1594C48.1264 14.0822 47.5928 12.7886 47.5928 11.2782C47.5928 9.76808 48.1264 8.47425 49.1937 7.39713C50.2728 6.32004 51.5688 5.78149 53.0818 5.78149H58.0783ZM59.8728 11.6472L60.9812 13.2803C61.4034 12.6713 61.6145 12.0041 61.6145 11.2782C61.6145 10.3064 61.2626 9.47524 60.5589 8.78451C59.8669 8.09375 59.04 7.74838 58.0783 7.74838H53.0818C52.1084 7.74838 51.2756 8.09375 50.5836 8.78451C49.8916 9.47524 49.5456 10.3064 49.5456 11.2782C49.5456 12.2499 49.8916 13.0813 50.5836 13.7718C51.2756 14.4627 52.1084 14.8081 53.0818 14.8081H58.0783C58.5592 14.8081 59.0224 14.7086 59.4682 14.5095L58.2542 12.7535L59.8728 11.6472Z" fill="#084FA3"/>
<path d="M125.522 20.1483V21.6703H126.503C126.66 21.6703 126.776 21.6087 126.874 21.4742C126.985 21.3233 127.024 21.1254 127.024 20.9186C127.024 20.7077 126.985 20.4989 126.874 20.344C126.776 20.2117 126.658 20.1483 126.503 20.1483H125.522ZM126.505 22.2185H125.08V19.5997H126.505C126.913 19.5997 127.2 19.8592 127.35 20.2321C127.437 20.4448 127.467 20.6798 127.467 20.9016C127.467 21.1236 127.437 21.3623 127.35 21.5788C127.202 21.9498 126.916 22.2185 126.505 22.2185Z" fill="#414141"/>
<path d="M124.179 22.2185H121.911V19.5997H124.179V20.1483H122.353V20.635H123.745V21.1833H122.353V21.6703H124.179V22.2185Z" fill="#414141"/>
<path d="M120.17 22.2185H119.709V20.1483H118.808V19.5997H121.076V20.1483H120.17V22.2185Z" fill="#414141"/>
<path d="M117.971 22.2185H117.529V19.5997H117.971V22.2185Z" fill="#414141"/>
<path d="M114.286 22.2167H113.844V19.5997H114.293L115.203 21.5565L116.113 19.5997H116.562V22.2167H116.12V20.6817L115.405 22.2185H114.999L114.286 20.6854V22.2167Z" fill="#414141"/>
<path d="M112.879 22.2185H112.436V19.5997H112.879V22.2185Z" fill="#414141"/>
<path d="M111.536 22.2185H109.39V19.5997H109.835V21.6703H111.536V22.2185Z" fill="#414141"/>
<path d="M106.87 22.2185H104.602V19.5997H106.87V20.1483H105.045V20.635H106.437V21.1833H105.045V21.6703H106.87V22.2185Z" fill="#414141"/>
<path d="M102.862 22.2185H102.4V20.1483H101.5V19.5997H103.767V20.1483H102.862V22.2185Z" fill="#414141"/>
<path d="M99.8018 20.1483L99.3426 21.1833H100.284L99.828 20.1483H99.8018ZM98.8835 22.2185H98.3802L99.5424 19.5997H100.086L101.248 22.2185H100.745L100.528 21.7318H99.1015L98.8835 22.2185Z" fill="#414141"/>
<path d="M97.0286 22.2185H96.4849L95.3228 19.5997H95.826L96.7443 21.6703H96.7705L97.6875 19.5997H98.1908L97.0286 22.2185Z" fill="#414141"/>
<path d="M94.4853 22.2185H94.0431V19.5997H94.4853V22.2185Z" fill="#414141"/>
<path d="M91.1699 20.1483V21.0453H92.3737C92.4631 21.0453 92.5282 21.0116 92.584 20.9334C92.6475 20.8456 92.6722 20.7262 92.6722 20.5957C92.6722 20.4671 92.6475 20.3459 92.584 20.2581C92.5294 20.1835 92.4631 20.1483 92.3737 20.1483H91.1699ZM91.1699 22.2185H90.7274V19.5997H92.3765C92.6941 19.5997 92.9133 19.8013 93.0274 20.0883C93.0925 20.2525 93.1144 20.4352 93.1144 20.6032C93.1144 20.84 93.0703 21.1013 92.9186 21.31C92.864 21.3849 92.7992 21.4501 92.7215 21.4987L93.2078 22.2185H92.6281L92.2078 21.5936H91.1699V22.2185Z" fill="#414141"/>
<path d="M87.9465 20.1483V21.0453H89.1506C89.24 21.0453 89.3048 21.0116 89.3606 20.9334C89.4241 20.8456 89.4488 20.7262 89.4488 20.5957C89.4488 20.4671 89.4241 20.3459 89.3606 20.2581C89.306 20.1835 89.24 20.1483 89.1506 20.1483H87.9465ZM87.9465 22.2185H87.5043V19.5997H89.153C89.471 19.5997 89.6902 19.8013 89.8043 20.0883C89.8703 20.2525 89.8912 20.4352 89.8912 20.6032C89.8912 20.8419 89.8471 21.1013 89.6951 21.3082C89.5591 21.495 89.3788 21.5936 89.153 21.5936H87.9465V22.2185Z" fill="#414141"/>
<path d="M84.3936 22.2185H82.6696V21.6703H84.3899C84.4805 21.6703 84.5416 21.5825 84.5416 21.4275C84.5416 21.2729 84.4818 21.1833 84.3899 21.1833H83.1861C83.0069 21.1833 82.8617 21.1032 82.7525 20.9557C82.6307 20.7899 82.5956 20.5809 82.5956 20.3963C82.5956 20.2098 82.6307 19.9971 82.7525 19.831C82.8617 19.6801 83.0069 19.5997 83.1861 19.5997H84.9113V20.1483H83.1898C83.1004 20.1483 83.0381 20.2377 83.0381 20.3889C83.0381 20.5453 83.0991 20.635 83.1898 20.635H84.3936C84.5715 20.635 84.7204 20.7132 84.8284 20.8626C84.9502 21.0286 84.9838 21.2374 84.9838 21.422C84.9838 21.6069 84.9489 21.8193 84.8296 21.9872C84.722 22.1384 84.5727 22.2185 84.3936 22.2185Z" fill="#414141"/>
<path d="M81.7586 22.2185H81.3162V19.5997H81.7586V22.2185Z" fill="#414141"/>
<path d="M79.8891 22.2185H78.165V21.6703H79.8851C79.9761 21.6703 80.0368 21.5825 80.0368 21.4275C80.0368 21.2729 79.9773 21.1833 79.8851 21.1833H78.6813C78.5023 21.1833 78.357 21.1032 78.248 20.9557C78.1261 20.7899 78.0911 20.5809 78.0911 20.3963C78.0911 20.2098 78.1261 19.9971 78.248 19.831C78.357 19.6801 78.5023 19.5997 78.6813 19.5997H80.4066V20.1483H78.6852C78.5957 20.1483 78.5334 20.2377 78.5334 20.3889C78.5334 20.5453 78.5944 20.635 78.6852 20.635H79.8891C80.0667 20.635 80.216 20.7132 80.3236 20.8626C80.4454 21.0286 80.4793 21.2374 80.4793 21.422C80.4793 21.6069 80.4442 21.8193 80.3248 21.9872C80.2172 22.1384 80.068 22.2185 79.8891 22.2185Z" fill="#414141"/>
<path d="M76.3962 22.2185H75.9539V21.3233L74.894 19.5997H75.4519L76.1731 20.7748L76.8931 19.5997H77.4522L76.3962 21.3159V22.2185Z" fill="#414141"/>
<path d="M74.7701 22.2185H72.6245V19.5997H73.0695V21.6703H74.7701V22.2185Z" fill="#414141"/>
<path d="M70.4075 20.1483L69.9483 21.1833H70.8901L70.4334 20.1483H70.4075ZM69.489 22.2185H68.9857L70.1481 19.5997H70.6916L71.8539 22.2185H71.3506L71.134 21.7318H69.707L69.489 22.2185Z" fill="#414141"/>
<path d="M66.2694 22.2185H65.827V19.5997H66.2136L67.7716 21.4183V19.5997H68.2139V22.2185H67.8287L66.2694 20.4241V22.2185Z" fill="#414141"/>
<path d="M63.6097 20.1483L63.1505 21.1833H64.0923L63.6357 20.1483H63.6097ZM62.6913 22.2185H62.188L63.3503 19.5997H63.8938L65.0562 22.2185H64.5528L64.3362 21.7318H62.9092L62.6913 22.2185Z" fill="#414141"/>
<path d="M57.7197 22.2185H57.2773V19.5997H57.7197V20.6647H59.2232V19.5997H59.6655V22.2185H59.2232V21.2114H57.7197V22.2185Z" fill="#414141"/>
<path d="M56.3756 21.6703V22.2185H54.9526C54.5426 22.2185 54.2559 21.965 54.1042 21.588C54.0172 21.3737 53.9874 21.1384 53.9874 20.9148C53.9874 20.6891 54.0172 20.456 54.1042 20.2395C54.2534 19.8647 54.5401 19.5997 54.9526 19.5997H56.3756V20.1483H54.9526C54.7398 20.1483 54.588 20.2788 54.4998 20.4989C54.4492 20.6257 54.4298 20.7674 54.4298 20.913C54.4298 21.1795 54.4985 21.4464 54.684 21.5843C54.7619 21.644 54.8527 21.6703 54.9526 21.6703H56.3756Z" fill="#414141"/>
<path d="M53.2817 22.2185H51.0142V19.5997H53.2817V20.1483H51.4565V20.635H52.8485V21.1833H51.4565V21.6703H53.2817V22.2185Z" fill="#414141"/>
<path d="M49.2734 22.2185H48.8115V20.1483H47.9113V19.5997H50.1788V20.1483H49.2734V22.2185Z" fill="#414141"/>
<defs>
<linearGradient id="paint0_linear_33_3712" x1="3.33582" y1="3.72605" x2="35.1151" y2="27.6029" gradientUnits="userSpaceOnUse">
<stop stop-color="#59C6D4"/>
<stop offset="1" stop-color="#33459D"/>
</linearGradient>
<linearGradient id="paint1_linear_33_3712" x1="32.4553" y1="9.23096" x2="32.4553" y2="23.1958" gradientUnits="userSpaceOnUse">
<stop stop-color="#364DA1"/>
<stop offset="0.667186" stop-color="#57BFD1"/>
</linearGradient>
</defs>
</svg>
